<svg width="276" height="185" viewBox="0 0 276 185" fill="none" xmlns="http://www.w3.org/2000/svg">
<path d="M218.8 58.4662L153.133 58.6649L150.378 47.4122L138.786 47.5488C138.775 47.3004 138.763 47.0396 138.74 46.7415C138.6 44.2699 130.799 45.5243 130.799 45.5243C122.904 44.3071 123.509 40.0718 123.509 40.0718C128.845 35.141 127.869 25.3166 128.125 24.8819C128.38 24.4472 131.194 21.8389 131.95 21.2428C132.705 20.6342 133.659 21.3918 134.17 21.5657C137.914 22.8947 136.775 19.5412 136.775 19.5412C137.868 19.181 137.158 17.8148 137.158 17.8148C138.286 17.9638 137.844 15.8648 137.961 15.8648C138.077 15.8648 138.868 16.2002 139.17 15.9393C140.112 15.1196 138.414 12.2754 138.414 12.2754C138.414 12.2754 138.798 12.3126 138.972 10.9712C139.135 9.62986 138.414 6.88499 138.414 6.88499L139.891 7.12098C139.891 7.12098 139.554 0.24017 131.078 0.00418574C122.602 -0.231799 123.66 9.58018 123.66 11.791C123.66 14.0142 123.8 14.747 122.986 16.3119L121.672 16.0635C121.672 16.0635 112.51 17.0199 107.011 26.6953C104.779 30.6325 101.825 34.8802 98.8955 38.9664C92.4776 43.003 83.9787 47.0644 83.9787 47.0644C83.9787 47.0644 88.0944 47.1762 92.6055 47.7724C90.8848 50.2564 89.4548 52.4796 88.5944 54.2557C85.5715 60.4658 88.141 69.3711 88.141 69.3711L87.4201 84.3872C84.0135 80.3134 65.9343 78.2889 65.9343 78.2889C65.7134 76.7984 65.4692 77.7548 62.2719 75.2459C59.0862 72.737 56.1447 79.7296 52.5405 85.5547C48.9363 91.3798 52.5405 99.366 54.1333 94.9692C55.7262 90.5725 63.2834 87.1693 63.2834 87.1693L65.8878 87.7034C73.1078 88.0636 86.6993 96.0374 91.9893 95.9504C97.2794 95.8635 101.814 77.8417 101.814 77.8417C103.162 78.5745 105.755 88.3989 105.755 88.3989C101.477 94.311 99.035 104.719 96.6051 110.37C94.1751 116.022 95.2564 122.455 95.2564 123.536C95.2564 124.616 104.069 122.294 110.452 123.374C116.835 124.455 117.079 120.058 113.812 120.145C110.534 120.232 104.662 118.257 104.406 117.45C104.151 116.643 105.418 113.239 105.418 113.239C105.255 105.439 117.172 91.3549 118.347 86.7843C119.521 82.2137 109.917 63.633 109.755 62.6145C109.592 61.5961 110.882 59.0251 110.882 59.0251C112.51 52.6784 117.312 50.2067 117.312 50.2067L118.626 50.8029C121.009 52.4175 132.054 51.9704 132.985 51.9704C133.915 51.9704 134.077 50.952 135.589 52.4672C136.449 53.3242 137.158 52.343 137.624 51.3121L147.68 51.1879L157.412 90.9451L161.214 107.402C159.667 109.128 158.726 111.476 158.726 114.047C158.726 119.363 162.772 123.697 167.76 123.697C172.736 123.697 176.793 119.375 176.793 114.047C176.793 111.811 176.084 109.762 174.887 108.122H190.245C189.048 109.762 188.338 111.811 188.338 114.047C188.338 119.363 192.385 123.697 197.372 123.697C202.36 123.697 206.406 119.375 206.406 114.047C206.406 108.731 202.36 104.396 197.372 104.396C197.023 104.396 196.686 104.421 196.349 104.458V104.396H164.144L161.33 92.3237H210.475L218.8 58.4662ZM211.801 72.2899L203 72.4265L205.499 62.2295L214.289 62.2047L211.801 72.2899ZM170.062 75.4198L183.072 75.2211V88.5977H173.282L170.062 75.4198ZM170.887 88.5977H160.458L157.284 75.6185L167.666 75.4571L170.887 88.5977ZM169.457 72.9482L166.864 62.3413L183.072 62.2916V72.737L169.457 72.9482ZM185.397 75.1838L199.965 74.9602L196.64 88.5977H185.397V75.1838ZM185.397 72.6998V62.2916L203.081 62.2419L200.581 72.4762L185.397 72.6998ZM164.469 62.3537L167.074 72.9854L156.691 73.1469L154.063 62.391L164.469 62.3537ZM173.294 114.022C173.294 117.288 170.806 119.946 167.748 119.946C164.69 119.946 162.202 117.288 162.202 114.022C162.202 110.755 164.69 108.097 167.748 108.097C170.806 108.11 173.294 110.768 173.294 114.022ZM202.895 114.022C202.895 117.288 200.407 119.946 197.349 119.946C194.291 119.946 191.803 117.288 191.803 114.022C191.803 110.755 194.291 108.097 197.349 108.097C200.407 108.097 202.895 110.768 202.895 114.022ZM199.047 88.5977L202.395 74.923L211.196 74.7864L207.79 88.5977H199.047Z" fill="#14B000"/>
<path d="M32.9283 159L35.0403 113.368C37.9416 112.813 40.7576 112.536 43.4883 112.536C44.3416 112.536 44.9603 113.005 45.3443 113.944L57.5683 147.352L69.7923 113.944C70.1763 113.005 70.7949 112.536 71.6483 112.536C74.7203 112.536 77.5363 112.813 80.0963 113.368L82.2083 159H75.2323L74.1443 119.768L62.4323 152.6C58.8483 153.197 56.3736 153.496 55.0083 153.496C53.6429 153.496 52.7896 153.027 52.4483 152.088L40.9923 119.768L39.9043 159H32.9283ZM115.769 151.704L118.137 156.056C117.411 156.739 115.875 157.528 113.529 158.424C111.182 159.32 108.665 159.768 105.977 159.768C101.198 159.768 97.3368 158.317 94.3928 155.416C91.4914 152.515 90.0408 148.163 90.0408 142.36C90.0408 139.16 90.5528 136.344 91.5768 133.912C92.6008 131.437 93.9234 129.517 95.5448 128.152C98.8728 125.421 102.35 124.056 105.977 124.056C109.646 124.056 112.547 124.995 114.681 126.872C116.857 128.707 117.945 130.968 117.945 133.656C117.945 137.197 116.259 140.099 112.889 142.36C109.518 144.579 104.121 145.688 96.6968 145.688C96.6968 147.651 97.5074 149.592 99.1288 151.512C100.793 153.432 103.225 154.392 106.425 154.392C109.667 154.392 112.782 153.496 115.769 151.704ZM111.737 134.232C111.737 132.952 111.246 131.843 110.265 130.904C109.326 129.923 107.982 129.432 106.233 129.432C103.417 129.432 101.091 130.499 99.2568 132.632C97.4648 134.723 96.5474 137.475 96.5048 140.888C106.659 140.888 111.737 138.669 111.737 134.232ZM139.21 159.768C134.346 159.768 130.592 158.104 127.946 154.776C125.301 151.448 123.978 147.203 123.978 142.04C123.978 136.835 125.386 132.547 128.202 129.176C131.018 125.763 134.922 124.056 139.914 124.056C144.096 124.056 147.936 124.952 151.434 126.744L149.514 131.416C146.613 130.093 143.882 129.432 141.322 129.432C137.909 129.432 135.37 130.563 133.706 132.824C132.085 135.085 131.274 137.923 131.274 141.336C131.274 150.04 134.645 154.392 141.386 154.392C143.904 154.392 146.528 153.667 149.258 152.216L151.498 156.696C148.213 158.744 144.117 159.768 139.21 159.768ZM172.934 124.056C177.115 124.056 180.571 125.528 183.302 128.472C186.032 131.373 187.398 135.661 187.398 141.336C187.398 147.011 185.99 151.512 183.174 154.84C180.4 158.125 176.219 159.768 170.63 159.768C166.448 159.768 162.992 158.296 160.262 155.352C157.531 152.365 156.166 148.035 156.166 142.36C156.166 136.685 157.552 132.227 160.326 128.984C163.142 125.699 167.344 124.056 172.934 124.056ZM163.462 142.424C163.462 146.691 164.166 149.763 165.574 151.64C167.024 153.475 169.179 154.392 172.038 154.392C174.896 154.392 176.944 153.283 178.182 151.064C179.462 148.845 180.102 145.603 180.102 141.336C180.102 137.027 179.376 133.976 177.926 132.184C176.518 130.349 174.555 129.432 172.038 129.432C168.838 129.432 166.598 130.52 165.318 132.696C164.08 134.872 163.462 138.115 163.462 142.424ZM196.869 135.704C196.869 131.864 196.485 128.408 195.717 125.336L201.093 124.632L202.309 127.832C205.935 125.315 209.647 124.056 213.445 124.056C217.285 124.056 220.101 125.293 221.893 127.768C225.349 125.293 229.039 124.056 232.965 124.056C236.933 124.056 239.791 125.101 241.541 127.192C243.333 129.283 244.229 132.419 244.229 136.6V159H237.317V137.88C237.317 133.741 236.335 131.16 234.373 130.136C233.519 129.667 232.431 129.432 231.109 129.432C228.89 129.432 226.415 130.392 223.685 132.312C223.941 133.635 224.069 135.064 224.069 136.6V159H217.157V137.88C217.157 135.235 216.751 133.165 215.941 131.672C215.13 130.179 213.487 129.432 211.013 129.432C208.538 129.432 206.127 130.349 203.781 132.184V159H196.869V135.704Z" fill="#1800D8"/>
</svg>
